<?xml version="1.0" encoding="UTF-8" standalone="no"?>
<svg
   xmlns:dc="http://purl.org/dc/elements/1.1/"
   xmlns:cc="http://creativecommons.org/ns#"
   xmlns:rdf="http://www.w3.org/1999/02/22-rdf-syntax-ns#"
   xmlns:svg="http://www.w3.org/2000/svg"
   xmlns="http://www.w3.org/2000/svg"
   xmlns:sodipodi="http://sodipodi.sourceforge.net/DTD/sodipodi-0.dtd"
   xmlns:inkscape="http://www.inkscape.org/namespaces/inkscape"
   version="1.1"
   id="Capa_1"
   x="0px"
   y="0px"
   width="50.850052"
   height="50.850052"
   viewBox="0 0 50.850052 50.850052"
   xml:space="preserve"
   sodipodi:docname="save-button.svg"
   inkscape:version="1.0.1 (0767f8302a, 2020-10-17)"><metadata
   id="metadata42"><rdf:RDF><cc:Work
       rdf:about=""><dc:format>image/svg+xml</dc:format><dc:type
         rdf:resource="http://purl.org/dc/dcmitype/StillImage" /></cc:Work></rdf:RDF></metadata><defs
   id="defs40" /><sodipodi:namedview
   pagecolor="#ffffff"
   bordercolor="#666666"
   borderopacity="1"
   objecttolerance="10"
   gridtolerance="10"
   guidetolerance="10"
   inkscape:pageopacity="0"
   inkscape:pageshadow="2"
   inkscape:window-width="1920"
   inkscape:window-height="1043"
   id="namedview38"
   showgrid="false"
   inkscape:zoom="1.8932462"
   inkscape:cx="-83.135195"
   inkscape:cy="-53.967139"
   inkscape:window-x="1920"
   inkscape:window-y="0"
   inkscape:window-maximized="1"
   inkscape:current-layer="Capa_1" />
<g
   id="g5"
   transform="scale(0.11078443)"
   style="fill:#00a3ad;fill-opacity:1">
	<g
   id="save"
   style="fill:#00a3ad;fill-opacity:1">
		<path
   d="M 357,0 H 51 C 22.95,0 0,22.95 0,51 v 357 c 0,28.05 22.95,51 51,51 h 357 c 28.05,0 51,-22.95 51,-51 V 102 Z M 229.5,408 c -43.35,0 -76.5,-33.15 -76.5,-76.5 0,-43.35 33.15,-76.5 76.5,-76.5 43.35,0 76.5,33.15 76.5,76.5 0,43.35 -33.15,76.5 -76.5,76.5 z M 306,153 H 51 V 51 h 255 z"
   id="path2"
   style="fill:#00a3ad;fill-opacity:1" />
	</g>
</g>
<g
   id="g7"
   transform="translate(-408.14995,-408.14995)">
</g>
<g
   id="g9"
   transform="translate(-408.14995,-408.14995)">
</g>
<g
   id="g11"
   transform="translate(-408.14995,-408.14995)">
</g>
<g
   id="g13"
   transform="translate(-408.14995,-408.14995)">
</g>
<g
   id="g15"
   transform="translate(-408.14995,-408.14995)">
</g>
<g
   id="g17"
   transform="translate(-408.14995,-408.14995)">
</g>
<g
   id="g19"
   transform="translate(-408.14995,-408.14995)">
</g>
<g
   id="g21"
   transform="translate(-408.14995,-408.14995)">
</g>
<g
   id="g23"
   transform="translate(-408.14995,-408.14995)">
</g>
<g
   id="g25"
   transform="translate(-408.14995,-408.14995)">
</g>
<g
   id="g27"
   transform="translate(-408.14995,-408.14995)">
</g>
<g
   id="g29"
   transform="translate(-408.14995,-408.14995)">
</g>
<g
   id="g31"
   transform="translate(-408.14995,-408.14995)">
</g>
<g
   id="g33"
   transform="translate(-408.14995,-408.14995)">
</g>
<g
   id="g35"
   transform="translate(-408.14995,-408.14995)">
</g>
</svg>
