<?xml version="1.0" encoding="UTF-8" standalone="no"?>
<svg
   xmlns:dc="http://purl.org/dc/elements/1.1/"
   xmlns:cc="http://creativecommons.org/ns#"
   xmlns:rdf="http://www.w3.org/1999/02/22-rdf-syntax-ns#"
   xmlns:svg="http://www.w3.org/2000/svg"
   xmlns="http://www.w3.org/2000/svg"
   xmlns:sodipodi="http://sodipodi.sourceforge.net/DTD/sodipodi-0.dtd"
   xmlns:inkscape="http://www.inkscape.org/namespaces/inkscape"
   height="21.183212pt"
   viewBox="0 0 21.183119 21.183212"
   width="21.183119pt"
   version="1.1"
   id="svg8"
   sodipodi:docname="xButton.svg"
   inkscape:version="1.0.1 (0767f8302a, 2020-10-17)">
  <metadata
     id="metadata14">
    <rdf:RDF>
      <cc:Work
         rdf:about="">
        <dc:format>image/svg+xml</dc:format>
        <dc:type
           rdf:resource="http://purl.org/dc/dcmitype/StillImage" />
      </cc:Work>
    </rdf:RDF>
  </metadata>
  <defs
     id="defs12" />
  <sodipodi:namedview
     pagecolor="#ffffff"
     bordercolor="#666666"
     borderopacity="1"
     objecttolerance="10"
     gridtolerance="10"
     guidetolerance="10"
     inkscape:pageopacity="0"
     inkscape:pageshadow="2"
     inkscape:window-width="1920"
     inkscape:window-height="1015"
     id="namedview10"
     showgrid="false"
     inkscape:zoom="5.0917969"
     inkscape:cx="11.943864"
     inkscape:cy="33.975828"
     inkscape:window-x="0"
     inkscape:window-y="28"
     inkscape:window-maximized="1"
     inkscape:current-layer="svg8"
     inkscape:document-rotation="0" />
  <g
     id="g838"
     transform="matrix(1.2128986,0,0,1.2128986,-14.122173,-14.122173)"
     style="fill:#ffffff">
    <path
       d="m 27.652909,29.108275 c -0.37247,0 -0.74494,-0.142085 -1.029111,-0.426567 L 12.069816,14.127726 c -0.568654,-0.568654 -0.568654,-1.489567 0,-2.05791 0.568343,-0.568342 1.489567,-0.568654 2.05791,0 l 14.553982,14.553982 c 0.568653,0.568654 0.568653,1.489567 0,2.05791 -0.284171,0.284482 -0.65633,0.426567 -1.028799,0.426567 z m 0,0"
       id="path4"
       style="fill:#ffffff;fill-opacity:1;stroke-width:0.0795928" />
    <path
       d="m 13.098615,29.108275 c -0.37247,0 -0.744628,-0.142085 -1.028799,-0.426567 -0.568654,-0.568343 -0.568654,-1.489568 0,-2.05791 L 26.623798,12.069816 c 0.568654,-0.568654 1.489567,-0.568654 2.05791,0 0.568342,0.568343 0.568653,1.489567 0,2.05791 L 14.127726,28.681708 c -0.284171,0.284482 -0.656641,0.426567 -1.029111,0.426567 z m 0,0"
       id="path6"
       style="fill:#ffffff;fill-opacity:1;stroke-width:0.0795928" />
  </g>
</svg>
